<svg
  xmlns="http://www.w3.org/2000/svg"
  width="1024"
  height="1024"
  viewBox="0 0 1024 1024"
  role="img"
  aria-labelledby="title desc"
>
  <title id="title">DND Character Sheet app icon</title>
  <desc id="desc">An open rulebook logo with a gold-lined twenty-sided die centered over the spine.</desc>
  <defs>
    <linearGradient id="left-book" x1="220" x2="548" y1="264" y2="744" gradientUnits="userSpaceOnUse">
      <stop offset="0%" stop-color="#1e5f8d" />
      <stop offset="100%" stop-color="#0f2f58" />
    </linearGradient>
    <linearGradient id="right-book" x1="806" x2="476" y1="264" y2="744" gradientUnits="userSpaceOnUse">
      <stop offset="0%" stop-color="#f2d18a" />
      <stop offset="100%" stop-color="#ba8c42" />
    </linearGradient>
    <linearGradient id="spine" x1="512" x2="512" y1="308" y2="790" gradientUnits="userSpaceOnUse">
      <stop offset="0%" stop-color="#d7b16a" />
      <stop offset="50%" stop-color="#1a4d77" />
      <stop offset="100%" stop-color="#8e6a34" />
    </linearGradient>
    <linearGradient id="die-fill" x1="400" x2="624" y1="210" y2="642" gradientUnits="userSpaceOnUse">
      <stop offset="0%" stop-color="#225e89" />
      <stop offset="100%" stop-color="#12365b" />
    </linearGradient>
    <linearGradient id="gold-stroke" x1="316" x2="708" y1="172" y2="660" gradientUnits="userSpaceOnUse">
      <stop offset="0%" stop-color="#f2d490" />
      <stop offset="100%" stop-color="#b8863d" />
    </linearGradient>
    <filter id="shadow" x="-18%" y="-18%" width="136%" height="136%">
      <feDropShadow dx="0" dy="20" stdDeviation="20" flood-color="#000000" flood-opacity="0.24" />
    </filter>
  </defs>

  <g filter="url(#shadow)">
    <g fill="none" stroke-linecap="round" stroke-linejoin="round">
      <path d="M512 784C423 717 336 684 224 684V256C343 256 434 298 512 376" stroke="url(#left-book)" stroke-width="30" />
      <path d="M512 784C601 717 688 684 800 684V256C681 256 590 298 512 376" stroke="url(#right-book)" stroke-width="30" />
      <path d="M512 784V376" stroke="url(#spine)" stroke-width="28" />
      <path d="M512 736C442 684 374 658 288 658V312C378 312 445 342 512 408" stroke="url(#left-book)" stroke-width="18" />
      <path d="M512 736C582 684 650 658 736 658V312C646 312 579 342 512 408" stroke="url(#right-book)" stroke-width="18" />
      <path d="M294 434H374V520H316V574H422" stroke="url(#left-book)" stroke-width="22" />
      <path d="M730 434H650V520H708V574H602" stroke="url(#right-book)" stroke-width="22" />
    </g>

    <g fill="url(#die-fill)" stroke="url(#gold-stroke)" stroke-linecap="round" stroke-linejoin="round">
      <path d="M512 170L678 230L778 366L742 608L512 748L282 608L246 366L346 230Z" stroke-width="20" />
      <path
        d="M512 170V748M346 230H678M246 366H778M282 608H742M346 230L512 366L678 230M246 366H512H778M282 608L512 516L742 608M346 230L282 608M678 230L742 608"
        fill="none"
        stroke-width="15"
      />
    </g>
  </g>
</svg>
