<svg
  xmlns="http://www.w3.org/2000/svg"
  width="1024"
  height="1024"
  viewBox="0 0 1024 1024"
  role="img"
  aria-labelledby="title desc"
>
  <title id="title">DND Character Sheet app icon</title>
  <desc id="desc">A gold-edged twenty-sided crest with a parchment medallion and letter D.</desc>
  <defs>
    <linearGradient id="bg" x1="0" x2="1" y1="0" y2="1">
      <stop offset="0%" stop-color="#2f2119" />
      <stop offset="100%" stop-color="#120d0b" />
    </linearGradient>
    <linearGradient id="crest" x1="0" x2="0" y1="0" y2="1">
      <stop offset="0%" stop-color="#f3ead7" />
      <stop offset="100%" stop-color="#d4b27d" />
    </linearGradient>
    <linearGradient id="medallion" x1="0" x2="0" y1="0" y2="1">
      <stop offset="0%" stop-color="#fff9ef" />
      <stop offset="100%" stop-color="#ead7b6" />
    </linearGradient>
    <filter id="shadow" x="-20%" y="-20%" width="140%" height="140%">
      <feDropShadow dx="0" dy="26" stdDeviation="26" flood-color="#000000" flood-opacity="0.26" />
    </filter>
  </defs>

  <rect x="72" y="72" width="880" height="880" rx="224" fill="url(#bg)" />
  <rect x="88" y="88" width="848" height="848" rx="208" fill="none" stroke="#d6ab62" stroke-width="10" opacity="0.72" />

  <g filter="url(#shadow)">
    <path
      d="M512 156L716 228L842 394L798 690L512 868L226 690L182 394L308 228Z"
      fill="url(#crest)"
      stroke="#d6ab62"
      stroke-width="22"
      stroke-linejoin="round"
    />
  </g>

  <g fill="none" stroke="#7e5d34" stroke-width="18" stroke-linecap="round" stroke-linejoin="round" opacity="0.9">
    <path d="M512 156V868" />
    <path d="M308 228H716" />
    <path d="M182 394H842" />
    <path d="M226 690H798" />
    <path d="M308 228L512 394L716 228" />
    <path d="M182 394L512 394L842 394" />
    <path d="M226 690L512 612L798 690" />
    <path d="M308 228L226 690" />
    <path d="M716 228L798 690" />
  </g>

  <circle cx="512" cy="520" r="214" fill="url(#medallion)" stroke="#5d4528" stroke-width="18" />
  <circle cx="512" cy="520" r="188" fill="none" stroke="#d6ab62" stroke-width="10" opacity="0.86" />

  <text
    x="512"
    y="620"
    fill="#362516"
    font-family="Georgia, 'Times New Roman', serif"
    font-size="314"
    font-weight="700"
    text-anchor="middle"
  >
    D
  </text>

  <g fill="none" stroke="#8f6a3d" stroke-width="18" stroke-linecap="round" opacity="0.72">
    <path d="M396 706H628" />
    <path d="M428 756H596" />
  </g>
</svg>
